<?xml version="1.0" standalone="no"?>
<!DOCTYPE svg PUBLIC "-//W3C//DTD SVG 20010904//EN"
 "http://www.w3.org/TR/2001/REC-SVG-20010904/DTD/svg10.dtd">
<svg version="1.0" xmlns="http://www.w3.org/2000/svg"
 width="1200.000000pt" height="1192.000000pt" viewBox="0 0 1200.000000 1192.000000"
 preserveAspectRatio="xMidYMid meet">

<g transform="translate(0.000000,1192.000000) scale(0.100000,-0.100000)"
fill="#000000" stroke="none">
<path d="M5375 11573 c-895 -78 -1655 -723 -1877 -1593 -62 -245 -55 -111
-148 -2720 -33 -938 -64 -1729 -68 -1759 l-7 -53 -125 -39 c-69 -21 -138 -39
-155 -39 -74 -1 -261 -159 -334 -283 -72 -122 -109 -261 -96 -363 l6 -50 -58
-18 c-219 -68 -591 -220 -818 -333 -857 -429 -1318 -945 -1351 -1513 -49 -821
852 -1580 2430 -2045 1713 -505 4012 -563 5871 -149 1615 360 2716 1026 2960
1789 43 137 55 210 55 351 0 610 -513 1177 -1472 1625 -251 117 -660 270 -919
344 l-96 27 -27 56 c-59 120 -161 221 -239 237 -18 4 -41 15 -52 25 -11 10
-73 40 -138 66 l-118 48 6 111 c3 60 38 976 76 2035 74 2035 78 2253 44 2440
-24 135 -60 267 -101 379 -284 764 -980 1302 -1789 1381 -235 23 -1323 55
-1460 43z m655 -193 c518 -17 768 -29 877 -45 482 -68 925 -323 1232 -709 255
-322 400 -702 427 -1119 3 -56 1 -212 -5 -347 -6 -135 -15 -373 -21 -530 -25
-704 -31 -850 -40 -1085 -5 -137 -14 -387 -20 -555 -6 -168 -15 -408 -20 -535
-5 -126 -17 -446 -26 -710 -9 -264 -18 -481 -19 -483 -1 -1 -65 18 -141 43
-375 124 -786 225 -1209 295 -158 26 -171 30 -193 57 -161 191 -253 282 -397
397 -33 27 -66 55 -72 64 -10 12 -13 92 -13 322 l0 305 106 34 c337 106 672
357 907 679 153 210 287 497 351 750 62 242 70 317 70 607 1 218 -3 289 -17
370 -62 338 -166 606 -338 865 -108 163 -323 382 -474 482 -407 269 -868 339
-1324 201 -614 -185 -1116 -756 -1290 -1464 -47 -190 -62 -306 -68 -519 -11
-383 58 -714 217 -1047 l59 -123 -52 0 c-123 0 -240 -84 -272 -195 -29 -98 2
-203 75 -257 l30 -22 0 -118 c0 -65 -2 -118 -5 -118 -3 0 -41 21 -84 46 -75
43 -80 48 -100 102 -27 76 -74 138 -124 164 -33 16 -53 19 -104 15 -146 -11
-242 -124 -231 -270 12 -149 126 -263 275 -275 l65 -5 156 -174 c134 -150 158
-181 164 -216 4 -23 14 -154 23 -292 9 -137 19 -262 22 -276 l5 -25 -144 -18
c-186 -23 -508 -77 -678 -114 -74 -17 -136 -29 -138 -27 -2 1 2 121 7 266 6
145 15 397 21 559 6 162 15 408 20 545 6 138 14 381 20 540 5 160 21 589 34
955 14 366 28 762 31 880 16 539 64 773 227 1092 335 658 1058 1084 1783 1052
50 -2 236 -8 415 -14z m225 -689 c445 -38 851 -292 1128 -704 104 -154 112
-174 131 -322 48 -381 -12 -821 -159 -1170 -223 -530 -639 -934 -1121 -1090
-553 -179 -1144 -25 -1560 407 -127 132 -148 165 -181 290 -59 221 -67 284
-71 553 -3 232 -2 261 22 398 26 147 38 197 81 337 41 129 122 320 137 320 5
0 6 5 3 10 -7 12 46 111 112 208 57 82 222 271 294 336 53 47 54 48 61 25 l7
-24 -1 25 c0 14 0 30 1 36 1 13 127 104 226 165 176 108 411 186 585 196 58 3
107 7 109 9 7 6 88 4 196 -5z m-1685 -3226 c16 -9 32 -26 36 -40 7 -29 -26
-136 -67 -218 -18 -36 -29 -73 -29 -100 0 -51 42 -230 64 -272 9 -16 16 -49
16 -72 0 -47 24 -69 64 -59 12 3 82 69 156 147 131 138 135 144 147 203 13 65
33 97 76 130 24 17 31 18 68 7 43 -13 129 -89 129 -115 0 -41 -159 -139 -248
-152 -39 -6 -46 -11 -62 -48 -10 -22 -66 -140 -125 -261 l-106 -220 11 -145
c6 -80 18 -210 26 -290 9 -80 20 -185 25 -234 15 -145 49 -327 72 -386 37 -92
34 -94 315 182 312 307 424 399 580 478 67 34 102 75 102 120 0 14 7 34 15 44
20 26 19 52 -3 74 -15 15 -16 30 -11 117 4 55 7 118 8 140 l1 40 230 0 230 0
0 -171 0 -171 -23 4 c-31 6 -57 -20 -57 -57 0 -25 11 -36 83 -83 166 -110 322
-254 466 -433 79 -99 78 -92 34 -249 -27 -94 -61 -175 -75 -175 -4 0 -14 13
-23 30 -32 63 -113 169 -189 248 -66 69 -84 82 -110 82 -69 0 -76 -56 -15
-115 53 -51 169 -186 169 -196 0 -4 -27 -42 -60 -83 -233 -289 -671 -438
-1067 -361 l-103 19 0 36 c1 40 17 214 26 275 5 38 11 44 89 93 90 57 106 79
81 117 -14 21 -14 28 -1 66 8 23 15 43 15 45 0 10 -29 -1 -137 -52 -370 -176
-572 -242 -619 -204 -27 23 -54 88 -79 188 -43 172 -65 349 -105 842 l-11 135
-237 238 -237 237 -78 0 c-94 0 -134 16 -178 71 -35 44 -34 70 3 121 23 33 86
68 123 68 44 0 96 -68 125 -166 13 -44 12 -43 205 -156 107 -62 128 -68 157
-41 16 15 18 35 18 213 0 212 1 209 -58 249 -106 73 -72 225 59 266 57 18 55
18 89 0z m259 -212 c40 -47 60 -77 55 -85 -5 -7 -15 -38 -24 -69 -13 -47 -27
-69 -91 -137 l-77 -79 -6 36 c-3 20 -6 70 -6 112 0 66 4 86 31 138 16 34 33
84 36 112 3 27 9 48 13 47 4 -2 35 -36 69 -75z m509 -392 c78 -39 232 -95 321
-116 l74 -18 -6 -96 c-4 -53 -10 -169 -13 -257 l-7 -162 -121 -80 c-142 -94
-295 -215 -423 -336 l-91 -86 -76 0 c-66 0 -76 2 -76 18 0 9 -18 158 -40 331
l-40 313 99 177 c99 176 99 176 160 210 33 19 86 56 118 82 32 26 59 48 61 48
1 1 28 -12 60 -28z m-2241 -1757 c132 -81 458 -243 608 -303 603 -240 1201
-373 1898 -422 259 -18 920 -7 1167 20 420 45 788 107 1139 192 144 34 99 14
-86 -39 -401 -115 -720 -176 -1168 -223 -180 -19 -267 -22 -615 -22 -344 0
-439 3 -630 22 -717 71 -1377 222 -2040 468 -230 85 -530 212 -530 224 0 9
136 149 145 149 2 0 52 -30 112 -66z m-763 -774 c90 -83 115 -215 62 -324 -35
-71 -80 -110 -180 -154 -415 -184 -727 -379 -948 -590 -59 -56 -117 -102 -145
-114 -94 -42 -233 -19 -314 50 -40 35 -79 97 -79 128 0 42 193 256 345 383
268 224 586 407 1045 602 74 32 143 58 153 58 9 1 37 -17 61 -39z m7539 -815
c248 -52 437 -283 437 -535 0 -293 -257 -550 -550 -550 -251 0 -483 190 -536
439 -39 183 15 360 151 496 136 136 313 190 498 150z m-7238 -330 c262 -56
445 -277 445 -540 0 -355 -348 -619 -690 -524 -312 86 -478 408 -370 715 72
207 279 354 510 362 19 1 66 -5 105 -13z m-1815 -150 c36 -19 60 -62 60 -110
0 -74 -51 -125 -125 -125 -120 0 -173 131 -88 216 28 29 41 34 79 34 25 0 58
-7 74 -15z m5517 -500 c262 -83 425 -359 369 -625 -35 -165 -142 -307 -287
-379 -100 -50 -170 -65 -284 -59 -95 5 -193 37 -265 84 -125 84 -220 232 -242
377 -41 271 133 539 398 612 84 23 221 19 311 -10z"/>
<path d="M5966 10617 c3 -10 9 -15 12 -12 3 3 0 11 -7 18 -10 9 -11 8 -5 -6z"/>
<path d="M5982 10550 c0 -19 2 -27 5 -17 2 9 2 25 0 35 -3 9 -5 1 -5 -18z"/>
<path d="M6607 10249 c-88 -13 -169 -53 -226 -114 -105 -111 -102 -253 8 -361
85 -83 226 -125 350 -104 131 22 248 101 287 195 21 51 18 150 -6 201 -63 130
-239 207 -413 183z"/>
<path d="M5248 10148 c5 -5 16 -8 23 -6 8 3 3 7 -10 11 -17 4 -21 3 -13 -5z"/>
<path d="M5041 9814 c0 -11 3 -14 6 -6 3 7 2 16 -1 19 -3 4 -6 -2 -5 -13z"/>
<path d="M4949 9663 c-13 -16 -12 -17 4 -4 9 7 17 15 17 17 0 8 -8 3 -21 -13z"/>
<path d="M6174 9621 c-113 -51 -113 -179 0 -238 50 -26 142 -23 194 7 51 29
72 63 72 119 0 104 -148 166 -266 112z"/>
<path d="M4752 9359 c-59 -23 -121 -87 -184 -190 -141 -232 -151 -541 -25
-769 98 -176 274 -315 462 -365 251 -66 536 5 727 183 121 112 127 230 23 437
-120 238 -416 533 -654 650 -150 74 -253 90 -349 54z m121 -96 c-7 -2 -21 -2
-30 0 -10 3 -4 5 12 5 17 0 24 -2 18 -5z"/>
<path d="M6820 9310 c-138 -24 -396 -193 -565 -371 -106 -111 -209 -250 -259
-349 -30 -58 -66 -191 -66 -239 0 -94 73 -192 203 -275 268 -172 619 -164 866
18 51 38 134 122 173 176 144 198 172 501 70 739 -43 98 -129 221 -186 265
-55 41 -134 53 -236 36z"/>
<path d="M5676 7975 c-24 -24 -20 -50 15 -90 42 -47 66 -60 85 -44 20 17 17
58 -9 104 -25 45 -63 57 -91 30z"/>
<path d="M5910 7944 c-60 -51 -70 -114 -19 -114 29 0 97 37 109 59 14 28 13
38 -10 61 -26 26 -42 25 -80 -6z"/>
<path d="M5590 7591 c0 -55 69 -142 135 -172 50 -23 127 -24 189 -3 55 19 146
102 146 133 0 25 2 25 -46 5 -146 -62 -249 -56 -355 21 -56 40 -69 43 -69 16z"/>
<path d="M6133 5980 c-50 -11 -80 -36 -93 -74 -16 -48 7 -91 63 -117 54 -24
91 -24 144 2 75 37 90 100 35 152 -22 21 -93 50 -112 46 -3 -1 -20 -4 -37 -9z"/>
<path d="M6025 5637 c-63 -29 -72 -74 -22 -111 63 -47 182 -15 182 49 0 55
-95 91 -160 62z"/>
</g>
</svg>
